<svg fill="none" height="40" viewBox="0 0 216 216" width="40" xmlns="http://www.w3.org/2000/svg" xmlns:xlink="http://www.w3.org/1999/xlink"><filter id="a" color-interpolation-filters="sRGB" filterUnits="userSpaceOnUse" height="280.15" width="221.133" x="-62.0488" y="-62.8369"><feFlood flood-opacity="0" result="BackgroundImageFix"/><feBlend in="SourceGraphic" in2="BackgroundImageFix" mode="normal" result="shape"/><feGaussianBlur result="effect1_foregroundBlur" stdDeviation="31.2188"/></filter><linearGradient id="b" gradientUnits="userSpaceOnUse" x1="16.3125" x2="342.876" y1="-111.484" y2="130.443"><stop offset=".109668" stop-color="#72056d"/><stop offset=".888275" stop-color="#e7061f"/></linearGradient><radialGradient id="c" cx="0" cy="0" gradientTransform="matrix(-1.6875351 160.10110657 -145.42192198 -1.53281012 78.2246 -94.6885)" gradientUnits="userSpaceOnUse" r="1"><stop offset="0" stop-color="#0085ff"/><stop offset="1" stop-color="#fff" stop-opacity="0"/></radialGradient><clipPath id="d"><path d="m0 0h216v216h-216z"/></clipPath><path d="m0 0h216v216h-216z" fill="#fff"/><g clip-path="url(#d)"><path d="m0 0h216v216h-216z" fill="#000"/><path d="m0 0h216v216h-216z" fill="url(#b)" fill-opacity=".9"/><g filter="url(#a)"><path d="m93.4405 45.6418c-8.6403 5.4019-16.4508 11.4089-23.0206 18.0838-20.2187 20.5422-35.2281 53.4564-46.0505 86.2364-2.6507 8.028-23.980662 5.61-23.980656-2.845l.000093-140.76642c.000003-3.72792 3.022083-6.749994 6.750003-6.749994h78.59736c8.6499 0 15.0388 41.455614 7.7043 46.041214z" fill="url(#c)"/></g></g><path d="m83.5446 92.3851v31.2119c0 .695-.566 1.26-1.2617 1.26h-8.1484c-.6957 0-1.2617-.565-1.2617-1.26v-31.2119c0-.6948.566-1.2601 1.2617-1.2601h8.1484c.6957 0 1.2617.5653 1.2617 1.2601zm-12.7413 31.0589-9.4927-16.22 8.9974-14.6239c.4334-.6242-.0118-1.4751-.7724-1.4751l-9.8906.0177c-.3125 0-.6073.156-.7812.4151l-6.9898 11.8622h-4.0801v-11.0349c0-.6948-.566-1.2601-1.2617-1.2601h-8.1454c-.6987 0-1.2618.5653-1.2618 1.2601v31.2119c0 .695.566 1.26 1.2618 1.26h8.1483c.6957 0 1.2618-.565 1.2618-1.26v-10.988h4.9644l6.9485 11.804c.171.282.4776.459.8078.459h9.4838c.737 0 1.1881-.804.8019-1.428zm106.8097 1.413c.696 0 1.262-.565 1.262-1.26v-31.2119c0-.6948-.566-1.2601-1.262-1.2601h-7.853c-.696 0-1.262.5653-1.262 1.2601l.05 15.9669-14.257-17.2093h-9.056c-.696 0-1.262.5653-1.262 1.2601v31.2152c0 .695.563 1.257 1.259 1.257h7.836c.696 0 1.259-.562 1.259-1.257v-15.988l14.112 17.23zm-36.906-32.3394v30.9504c0 .768-.625 1.392-1.395 1.392h-51.1095c-.7694 0-1.3944-.624-1.3944-1.392v-30.9504c0-.7684.625-1.3926 1.3944-1.3926h51.1125c.767 0 1.392.6242 1.392 1.3926zm-10.607 7.5754c0-.2795-.257-.4885-.534-.4326-5.521 1.1016-25.073 1.2686-31.6291-.0088-.2712-.053-.5218.156-.5218.4354v15.313c0 .271.2388.477.51.439 5.4359-.804 26.1019-.671 31.6799.018.265.032.495-.174.495-.439z" fill="#eee"/></svg>